<?xml version="1.0" encoding="utf-8"?>
<svg viewBox="150 150 200 200" width="200" height="200" xmlns="http://www.w3.org/2000/svg" xmlns:bx="https://boxy-svg.com">
  <rect width="200" height="200" style="stroke: rgb(0, 0, 0); fill: rgb(140, 50, 50);" x="150" y="150"/>
  <path d="M 316 224.751 C 315.912 223.996 315.743 223.248 315.502 222.529 L 315.502 221.782 C 315.106 220.938 314.578 220.153 313.932 219.471 L 313.932 219.471 L 264.432 169.971 L 264.432 169.971 C 263.75 169.333 262.973 168.805 262.129 168.409 L 261.382 168.409 L 258.742 167.5 L 208.743 167.5 C 195.081 167.5 184 178.581 184 192.243 L 184 307.743 C 184 321.419 195.081 332.5 208.743 332.5 L 291.243 332.5 C 304.919 332.5 316 321.419 316 307.743 L 316 225.243 C 316 225.243 316 225.243 316 224.751 Z M 266.5 195.63 L 287.869 217 L 266.5 217 Z M 299.5 307.743 C 299.5 312.304 295.804 316 291.243 316 L 208.743 316 C 204.189 316 200.5 312.304 200.5 307.743 L 200.5 192.243 C 200.5 187.689 204.189 184 208.743 184 L 250 184 L 250 225.243 C 250 229.804 253.689 233.5 258.243 233.5 L 299.5 233.5 Z" style="fill: rgb(140, 95, 50); stroke-miterlimit: 8; mix-blend-mode: lighten; stroke: rgb(140, 95, 50); stroke-linejoin: bevel; stroke-opacity: 0.2; stroke-width: 2px; vector-effect: non-scaling-stroke; paint-order: fill; stroke-dashoffset: 11px;" bx:origin="0.554871 0.517042"/>
  <path d="M 250 271.472 C 256.686 271.472 262.935 270.866 268.747 269.653 C 274.558 268.439 279.143 266.648 282.5 264.278 L 282.5 271.472 C 282.5 273.419 281.047 275.224 278.142 276.889 C 275.236 278.553 271.286 279.872 266.292 280.846 C 261.299 281.819 255.868 282.305 250 282.305 C 244.132 282.305 238.701 281.819 233.708 280.846 C 228.714 279.872 224.765 278.553 221.858 276.889 C 218.953 275.224 217.5 273.419 217.5 271.472 L 217.5 264.278 C 220.857 266.648 225.442 268.439 231.253 269.653 C 237.065 270.866 243.314 271.472 250 271.472 Z M 250 303.972 C 256.686 303.972 262.935 303.366 268.747 302.153 C 274.558 300.939 279.143 299.148 282.5 296.778 L 282.5 303.972 C 282.5 305.919 281.047 307.724 278.142 309.388 C 275.236 311.053 271.286 312.372 266.292 313.346 C 261.299 314.319 255.868 314.805 250 314.805 C 244.132 314.805 238.701 314.319 233.708 313.346 C 228.714 312.372 224.765 311.053 221.858 309.388 C 218.953 307.724 217.5 305.919 217.5 303.972 L 217.5 296.778 C 220.857 299.148 225.442 300.939 231.253 302.153 C 237.065 303.366 243.314 303.972 250 303.972 Z M 250 287.722 C 256.686 287.722 262.935 287.116 268.747 285.903 C 274.558 284.689 279.143 282.898 282.5 280.528 L 282.5 287.722 C 282.5 289.669 281.047 291.474 278.142 293.139 C 275.236 294.803 271.286 296.122 266.292 297.096 C 261.299 298.069 255.868 298.555 250 298.555 C 244.132 298.555 238.701 298.069 233.708 297.096 C 228.714 296.122 224.765 294.803 221.858 293.139 C 218.953 291.474 217.5 289.669 217.5 287.722 L 217.5 280.528 C 220.857 282.898 225.442 284.689 231.253 285.903 C 237.065 287.116 243.314 287.722 250 287.722 Z M 250 238.972 C 255.868 238.972 261.299 239.459 266.292 240.432 C 271.286 241.405 275.236 242.724 278.142 244.389 C 281.047 246.053 282.5 247.859 282.5 249.805 L 282.5 255.222 C 282.5 257.169 281.047 258.974 278.142 260.639 C 275.236 262.303 271.286 263.622 266.292 264.596 C 261.299 265.569 255.868 266.055 250 266.055 C 244.132 266.055 238.701 265.569 233.708 264.596 C 228.714 263.622 224.765 262.303 221.858 260.639 C 218.953 258.974 217.5 257.169 217.5 255.222 L 217.5 249.805 C 217.5 247.859 218.953 246.053 221.858 244.389 C 224.765 242.724 228.714 241.405 233.708 240.432 C 238.701 239.459 244.132 238.972 250 238.972 Z" style="fill: rgb(50, 50, 140);"/>
</svg>